<?xml version="1.0" encoding="utf-8"?>
<!DOCTYPE svg PUBLIC "-//W3C//DTD SVG 1.1//EN" "http://www.w3.org/Graphics/SVG/1.1/DTD/svg11.dtd">
<svg xmlns="http://www.w3.org/2000/svg" xmlns:xlink="http://www.w3.org/1999/xlink" version="1.1" baseProfile="full" width="96" height="96" viewBox="0 0 96.00 96.00" enable-background="new 0 0 96.00 96.00" xml:space="preserve">
	<rect x="0" y="0" fill="#220646" fill-opacity="1" stroke-width="0.375" stroke-linejoin="round" width="48" height="48"/>
	<path fill="#01143F" fill-opacity="1" stroke-width="0.75" stroke-linejoin="round" d="M 48,48L 96,48L 96,96L 48,96L 48,48 Z "/>
	<line fill="none" stroke-width="1.5" stroke-linecap="square" stroke-linejoin="round" stroke="#CCCCCC" stroke-opacity="0.705882" x1="60" y1="48" x2="48" y2="60"/>
	<line fill="none" stroke-width="1.5" stroke-linecap="square" stroke-linejoin="round" stroke="#CCCCCC" stroke-opacity="0.705882" x1="72" y1="48" x2="48" y2="72"/>
	<line fill="none" stroke-width="1.5" stroke-linecap="square" stroke-linejoin="round" stroke="#CCCCCC" stroke-opacity="0.705882" x1="48" y1="84" x2="84" y2="48"/>
	<line fill="none" stroke-width="1.5" stroke-linecap="square" stroke-linejoin="round" stroke="#CCCCCC" stroke-opacity="0.705882" x1="48" y1="96" x2="96" y2="48"/>
	<line fill="none" stroke-width="1.5" stroke-linecap="square" stroke-linejoin="round" stroke="#CCCCCC" stroke-opacity="0.705882" x1="60" y1="96" x2="96" y2="60"/>
	<line fill="none" stroke-width="1.5" stroke-linecap="square" stroke-linejoin="round" stroke="#CCCCCC" stroke-opacity="0.705882" x1="72" y1="96" x2="96" y2="72"/>
	<line fill="none" stroke-width="1.5" stroke-linecap="square" stroke-linejoin="round" stroke="#CCCCCC" stroke-opacity="0.705882" x1="84" y1="96" x2="96" y2="84"/>
	<line fill="none" stroke-width="1.5" stroke-linecap="square" stroke-linejoin="round" stroke="#CCCCCC" stroke-opacity="0.705882" x1="48" y1="54" x2="54" y2="48"/>
	<line fill="none" stroke-width="1.5" stroke-linecap="square" stroke-linejoin="round" stroke="#CCCCCC" stroke-opacity="0.705882" x1="48" y1="66" x2="66" y2="48"/>
	<line fill="none" stroke-width="1.5" stroke-linecap="square" stroke-linejoin="round" stroke="#CCCCCC" stroke-opacity="0.705882" x1="48" y1="78" x2="78" y2="48"/>
	<line fill="none" stroke-width="1.5" stroke-linecap="square" stroke-linejoin="round" stroke="#CCCCCC" stroke-opacity="0.705882" x1="48" y1="90" x2="90" y2="48"/>
	<line fill="none" stroke-width="1.5" stroke-linecap="square" stroke-linejoin="round" stroke="#CCCCCC" stroke-opacity="0.705882" x1="54" y1="96" x2="96" y2="54"/>
	<line fill="none" stroke-width="1.5" stroke-linecap="square" stroke-linejoin="round" stroke="#CCCCCC" stroke-opacity="0.705882" x1="66" y1="96" x2="96" y2="66"/>
	<line fill="none" stroke-width="1.5" stroke-linecap="square" stroke-linejoin="round" stroke="#CCCCCC" stroke-opacity="0.705882" x1="78" y1="96" x2="96" y2="78"/>
	<line fill="none" stroke-width="1.5" stroke-linecap="square" stroke-linejoin="round" stroke="#CCCCCC" stroke-opacity="0.705882" x1="90" y1="96" x2="96" y2="90"/>
	<rect x="0" y="48" fill="#B0D9FC" fill-opacity="1" stroke-width="0.375" stroke-linejoin="round" width="48" height="48"/>
	<rect x="48" y="0" fill="#CCCEFC" fill-opacity="1" stroke-width="0.375" stroke-linejoin="round" width="48" height="48"/>
	<g>
		<path fill="#CCCCCC" fill-opacity="1" stroke-width="0.375" stroke-linejoin="round" d="M 35.4333,29.0581C 35.4333,29.8981 35.2243,30.8081 34.8062,31.7881C 34.3882,32.7681 33.729,33.7287 32.8287,34.6698C 31.9285,35.6109 30.7793,36.3761 29.3812,36.9652C 27.9832,37.5544 26.3547,37.849 24.4958,37.849C 23.0881,37.849 21.8067,37.7216 20.6517,37.4669C 19.4967,37.2122 18.4554,36.8155 17.5279,36.2769C 16.6004,35.7383 15.7614,35.0276 15.0108,34.1448C 14.3381,33.3009 13.7644,32.3559 13.29,31.3098C 12.8156,30.2637 12.4597,29.1466 12.2225,27.9586C 11.9853,26.7705 11.8667,25.5095 11.8667,24.1757C 11.8667,22.0095 12.1651,20.07 12.7621,18.3569C 13.359,16.6438 14.2126,15.1777 15.3229,13.9586C 16.4332,12.7394 17.7719,11.8119 19.3392,11.1761C 20.9064,10.5402 22.5767,10.2223 24.35,10.2223C 26.5122,10.2223 28.4382,10.6511 30.1279,11.5086C 31.8176,12.3661 33.1126,13.4248 34.0129,14.6848C 34.9132,15.9448 35.3633,17.1368 35.3633,18.2607C 35.3633,18.8751 35.1446,19.4176 34.7071,19.8881C 34.2696,20.3587 33.7397,20.594 33.1175,20.594C 32.4253,20.594 31.9061,20.4268 31.56,20.0923C 31.2139,19.7579 30.8289,19.1823 30.405,18.3656C 29.6972,17.0123 28.8669,16.0012 27.9142,15.3323C 26.9614,14.6634 25.785,14.329 24.385,14.329C 22.1644,14.329 20.394,15.1904 19.0737,16.9131C 17.7535,18.6359 17.0933,21.084 17.0933,24.2573C 17.0933,26.3768 17.385,28.1404 17.9683,29.5481C 18.5517,30.9559 19.3781,32.0069 20.4475,32.7011C 21.5169,33.3952 22.7692,33.7423 24.2042,33.7423C 25.7597,33.7423 27.0751,33.3486 28.1504,32.5611C 29.2257,31.7736 30.0375,30.6176 30.5858,29.0931C 30.8153,28.3737 31.1001,27.7875 31.4404,27.3344C 31.7807,26.8813 32.3281,26.6548 33.0825,26.6548C 33.7281,26.6548 34.2812,26.8843 34.7421,27.3431C 35.2029,27.802 35.4333,28.3737 35.4333,29.0581 Z "/>
	</g>
	<g>
		<path fill="#222222" fill-opacity="1" stroke-width="0.375" stroke-linejoin="round" d="M 83.1467,29.3317C 83.1467,30.9728 82.7325,32.4467 81.9042,33.7534C 81.0758,35.06 79.8635,36.0838 78.2671,36.8246C 76.6707,37.5654 74.7778,37.9359 72.5883,37.9359C 69.9633,37.9359 67.7972,37.4206 66.09,36.39C 64.9078,35.6667 63.9482,34.7023 63.2113,33.4967C 62.4743,32.2911 62.1058,31.1186 62.1058,29.9792C 62.1058,29.3181 62.3275,28.7513 62.7708,28.2788C 63.2142,27.8063 63.7761,27.57 64.4567,27.57C 65.0128,27.57 65.4824,27.7518 65.8654,28.1154C 66.2485,28.4791 66.5761,29.0186 66.8483,29.7342C 67.1906,30.582 67.56,31.2917 67.9567,31.8634C 68.3533,32.435 68.9124,32.9056 69.6338,33.275C 70.3551,33.6445 71.3031,33.8292 72.4775,33.8292C 74.0914,33.8292 75.4019,33.4559 76.4092,32.7092C 77.4164,31.9625 77.92,31.0311 77.92,29.915C 77.92,29.0284 77.6478,28.3089 77.1033,27.7567C 76.5589,27.2045 75.855,26.7825 74.9917,26.4909C 74.1283,26.1992 72.9733,25.89 71.5267,25.5634C 69.6328,25.1161 68.0481,24.595 66.7725,24C 65.4969,23.405 64.4849,22.5923 63.7363,21.5617C 62.9876,20.5311 62.6133,19.2498 62.6133,17.7175C 62.6133,16.2592 63.011,14.9642 63.8062,13.8325C 64.6015,12.7009 65.7517,11.8307 67.2567,11.2221C 68.7617,10.6135 70.5331,10.3092 72.5708,10.3092C 74.1964,10.3092 75.6022,10.5104 76.7883,10.913C 77.9744,11.3155 78.9593,11.8492 79.7429,12.5142C 80.5265,13.1792 81.0992,13.8773 81.4608,14.6084C 81.8225,15.3395 82.0033,16.0531 82.0033,16.7492C 82.0033,17.3831 81.7797,17.9548 81.3325,18.4642C 80.8853,18.9736 80.3272,19.2284 79.6583,19.2284C 79.0478,19.2284 78.584,19.0864 78.2671,18.8025C 77.9501,18.5186 77.6069,18.052 77.2375,17.4025C 76.7475,16.3448 76.1593,15.5203 75.4729,14.9292C 74.7865,14.3381 73.685,14.0425 72.1683,14.0425C 70.7606,14.0425 69.625,14.3488 68.7617,14.9613C 67.8983,15.5738 67.4667,16.3117 67.4667,17.175C 67.4667,17.7078 67.6135,18.1677 67.9071,18.5546C 68.2007,18.9416 68.6051,19.275 69.1204,19.555C 69.6357,19.835 70.1558,20.0538 70.6808,20.2113C 71.2058,20.3688 72.075,20.5992 73.2883,20.9025C 74.7856,21.2564 76.1399,21.6453 77.3512,22.0692C 78.5626,22.4931 79.5932,23.0084 80.4429,23.615C 81.2926,24.2217 81.9557,24.9898 82.4321,25.9192C 82.9085,26.8486 83.1467,27.9861 83.1467,29.3317 Z "/>
	</g>
	<g>
		<path fill="#222222" fill-opacity="1" stroke-width="0.375" stroke-linejoin="round" d="M 34.8374,76.4935C 34.8374,78.1346 34.4232,79.6085 33.5949,80.9152C 32.7665,82.2219 31.5542,83.2456 29.9578,83.9865C 28.3614,84.7273 26.4685,85.0977 24.279,85.0977C 21.654,85.0977 19.4879,84.5824 17.7807,83.5519C 16.5985,82.8285 15.6389,81.8641 14.902,80.6585C 14.165,79.453 13.7965,78.2805 13.7965,77.141C 13.7965,76.4799 14.0182,75.9131 14.4615,75.4406C 14.9049,74.9681 15.4668,74.7319 16.1474,74.7319C 16.7035,74.7319 17.1731,74.9137 17.5561,75.2773C 17.9392,75.6409 18.2668,76.1805 18.539,76.896C 18.8813,77.7438 19.2507,78.4535 19.6474,79.0252C 20.044,79.5969 20.6031,80.0674 21.3245,80.4369C 22.0458,80.8063 22.9938,80.991 24.1682,80.991C 25.7821,80.991 27.0927,80.6177 28.0999,79.871C 29.1071,79.1244 29.6107,78.193 29.6107,77.0769C 29.6107,76.1902 29.3385,75.4708 28.794,74.9185C 28.2496,74.3663 27.5457,73.9444 26.6824,73.6527C 25.819,73.361 24.664,73.0519 23.2174,72.7252C 21.3235,72.278 19.7388,71.7569 18.4632,71.1619C 17.1877,70.5669 16.1756,69.7541 15.427,68.7235C 14.6783,67.693 14.304,66.4116 14.304,64.8794C 14.304,63.421 14.7017,62.126 15.497,60.9944C 16.2922,59.8627 17.4424,58.9926 18.9474,58.384C 20.4524,57.7753 22.2238,57.471 24.2615,57.471C 25.8871,57.471 27.2929,57.6723 28.479,58.0748C 29.6652,58.4773 30.65,59.011 31.4336,59.676C 32.2172,60.341 32.7899,61.0391 33.1515,61.7702C 33.5132,62.5013 33.694,63.2149 33.694,63.911C 33.694,64.5449 33.4704,65.1166 33.0232,65.626C 32.576,66.1355 32.0179,66.3902 31.349,66.3902C 30.7385,66.3902 30.2747,66.2483 29.9578,65.9644C 29.6408,65.6805 29.2977,65.2138 28.9282,64.5644C 28.4382,63.5066 27.85,62.6822 27.1636,62.091C 26.4772,61.4999 25.3757,61.2044 23.859,61.2044C 22.4513,61.2044 21.3157,61.5106 20.4524,62.1231C 19.589,62.7356 19.1574,63.4735 19.1574,64.3369C 19.1574,64.8697 19.3042,65.3295 19.5978,65.7165C 19.8914,66.1034 20.2958,66.4369 20.8111,66.7169C 21.3264,66.9969 21.8465,67.2156 22.3715,67.3731C 22.8965,67.5306 23.7657,67.761 24.979,68.0644C 26.4763,68.4183 27.8306,68.8072 29.042,69.231C 30.2533,69.6549 31.2839,70.1702 32.1336,70.7769C 32.9833,71.3835 33.6464,72.1516 34.1228,73.081C 34.5992,74.0105 34.8374,75.148 34.8374,76.4935 Z "/>
	</g>
</svg>
